<?xml version="1.0" standalone="no"?><!DOCTYPE svg PUBLIC "-//W3C//DTD SVG 1.1//EN" "http://www.w3.org/Graphics/SVG/1.1/DTD/svg11.dtd"><svg t="1673161564042" class="icon" viewBox="0 0 1024 1024" version="1.1" xmlns="http://www.w3.org/2000/svg" p-id="2917" width="32" height="32" data-spm-anchor-id="a313x.7781069.0.i3" xmlns:xlink="http://www.w3.org/1999/xlink"><path d="M777.115 1003.431v-8.6c0-9.286-7.548-16.841-16.827-16.841-1.106 0-2.222 0.109-3.312 0.326l-50.578 10.113-196.42-0.301-150.566-30.621-72.456-35.755c-15.48-7.56-21.972-25.699-14.819-41.321a31.845 31.845 0 0 1 18.801-16.973 31.62 31.62 0 0 1 9.986-1.609 31.864 31.864 0 0 1 15.177 3.856l20.345 11.118a16.887 16.887 0 0 0 8.083 2.08c5.4 0 10.521-2.641 13.697-7.063 3.185-4.437 4.005-9.965 2.251-15.169-3.083-9.201-1.546-19.426 4.114-27.33 5.671-7.873 14.853-12.59 24.545-12.59h0.165c12.397 0 23.358 7.449 27.925 18.977l17.92 44.887c2.569 6.437 8.707 10.594 15.636 10.594l21.326-0.068c7.856-0.026 14.403-5.167 16.289-12.795 1.888-7.625-1.506-15.227-8.444-18.913l-12.874-6.841c-11.498-6.137-18.574-18.059-18.449-31.107 0.123-13.053 7.423-24.84 19.051-30.768a34.648 34.648 0 0 1 15.727-3.799c3.937 0 7.813 0.67 11.523 1.986l124.628 44.197 38.494 25.664a16.776 16.776 0 0 0 9.342 2.83h98.41l-11.31-11.311 22.62 0.018v-18.529h186.907v171.657H777.115z" fill="#B4CEFC" p-id="2918"></path><path d="M483.408 798.229c2.643 0 5.248 0.447 7.747 1.336l123.299 43.727 37.328 24.887a28.049 28.049 0 0 0 15.61 4.728h98.413v-22.611l22.62-0.009v-7.201h164.287v149.037H788.296c-1.367-14.255-13.406-25.441-28.007-25.441-1.852 0-3.71 0.184-5.53 0.548l-49.472 9.89-194.162-0.296-148.021-30.104-71.143-35.107-0.042-0.021-0.044-0.021c-9.877-4.822-14.03-16.431-9.455-26.429l0.014-0.023 0.011-0.029a20.495 20.495 0 0 1 12.05-10.891 20.462 20.462 0 0 1 16.159 1.423l20.367 11.129a28.246 28.246 0 0 0 13.508 3.47c9.03 0 17.586-4.404 22.883-11.777 5.257-7.318 6.671-16.809 3.796-25.342a19.134 19.134 0 0 1 2.555-17.138c3.57-4.944 9.315-7.897 15.374-7.897h0.164c7.728 0 14.564 4.646 17.413 11.832l0.011 0.028 0.01 0.024 17.909 44.86c4.294 10.76 14.556 17.712 26.159 17.712h0.076l21.269-0.068a28.112 28.112 0 0 0 27.231-21.389 28.106 28.106 0 0 0-14.118-31.617l-12.835-6.82a23.514 23.514 0 0 1-12.485-21.032c0.083-8.825 5.018-16.793 12.919-20.819a23.177 23.177 0 0 1 10.548-2.549m0-22.622a45.755 45.755 0 0 0-20.862 5.033 46.205 46.205 0 0 0-25.227 40.738 46.2 46.2 0 0 0 24.454 41.201l12.873 6.842c5.079 2.697 3.174 10.389-2.576 10.408l-21.269 0.068h-0.018a5.523 5.523 0 0 1-5.133-3.479l-17.909-44.858a41.35 41.35 0 0 0-38.442-26.119h-0.164c-13.319 0-25.942 6.485-33.741 17.314a41.701 41.701 0 0 0-5.635 37.526c1.288 3.819-1.716 7.314-5.232 7.314a5.503 5.503 0 0 1-2.659-0.699l-20.367-11.131a43.08 43.08 0 0 0-34.164-3.031 43.053 43.053 0 0 0-25.485 22.987c-9.646 21.073-0.732 46 20.099 56.17l73.13 36.086c0.427 0.213 0.877 0.367 1.343 0.462l151.868 30.884c0.36 0.073 0.726 0.111 1.093 0.113l197.574 0.3h0.009c0.363 0 0.727-0.035 1.084-0.106l51.143-10.223c0.369-0.075 0.735-0.11 1.096-0.11 2.977 0 5.517 2.419 5.517 5.529v14.383a5.527 5.527 0 0 0 5.527 5.528h198.472a5.527 5.527 0 0 0 5.528-5.528V825.99a5.527 5.527 0 0 0-5.528-5.526H771.333a5.526 5.526 0 0 0-5.527 5.526V850.303v-0.018h-98.413a5.516 5.516 0 0 1-3.065-0.928l-39.092-26.064a5.506 5.506 0 0 0-1.22-0.611l-125.3-44.437a45.746 45.746 0 0 0-15.308-2.638" fill="#12126D" p-id="2919"></path><path d="M788.683 842.264h164.166v150.332H788.683z" fill="#FFFFFF" p-id="2920"></path><path d="M505.16 261.4c-68.855 0-124.875-56.02-124.875-124.873 0-68.858 56.019-124.875 124.875-124.875s124.875 56.017 124.875 124.875C630.034 205.381 574.016 261.4 505.16 261.4" fill="#E0D224" p-id="2921"></path><path d="M505.16 21.572c63.386 0 114.954 51.567 114.954 114.953 0 63.387-51.567 114.954-114.954 114.954s-114.954-51.567-114.954-114.954c0-63.385 51.567-114.953 114.954-114.953m0-19.841c-74.445 0-134.795 60.349-134.795 134.794 0 74.447 60.35 134.795 134.795 134.795 74.446 0 134.795-60.348 134.795-134.795 0-74.445-60.35-134.794-134.795-134.794" fill="#12126D" p-id="2922"></path><path d="M158.298 657.723c-59.62 0-108.124-48.506-108.124-108.124 0-59.621 48.504-108.124 108.124-108.124 59.621 0 108.124 48.503 108.124 108.124 0 59.618-48.503 108.124-108.124 108.124" fill="#E0D224" p-id="2923"></path><path d="M158.298 452.785c53.385 0 96.815 43.43 96.815 96.813 0 53.382-43.43 96.813-96.815 96.813-53.383 0-96.814-43.432-96.814-96.813 0-53.383 43.432-96.813 96.814-96.813m0-22.621c-65.961 0-119.434 53.473-119.434 119.435 0 65.96 53.473 119.434 119.434 119.434 65.962 0 119.435-53.474 119.435-119.434 0-65.962-53.473-119.435-119.435-119.435" fill="#12126D" p-id="2924"></path><path d="M504.839 657.723c-59.62 0-108.124-48.506-108.124-108.124 0-59.621 48.504-108.124 108.124-108.124s108.124 48.503 108.124 108.124c0 59.618-48.504 108.124-108.124 108.124" fill="#E0D224" p-id="2925"></path><path d="M504.839 452.785c53.383 0 96.814 43.43 96.814 96.813 0 53.382-43.431 96.813-96.814 96.813-53.384 0-96.814-43.432-96.814-96.813 0-53.383 43.431-96.813 96.814-96.813m0-22.621c-65.962 0-119.434 53.473-119.434 119.435 0 65.96 53.472 119.434 119.434 119.434 65.961 0 119.434-53.474 119.434-119.434 0-65.962-53.472-119.435-119.434-119.435" fill="#12126D" p-id="2926"></path><path d="M854.773 657.723c-59.621 0-108.125-48.506-108.125-108.124 0-59.621 48.504-108.124 108.125-108.124 59.62 0 108.124 48.503 108.124 108.124 0 59.618-48.503 108.124-108.124 108.124" fill="#E0D224" p-id="2927"></path><path d="M854.773 452.785c53.383 0 96.813 43.43 96.813 96.813 0 53.382-43.431 96.813-96.813 96.813-53.384 0-96.814-43.432-96.814-96.813 0-53.383 43.431-96.813 96.814-96.813m0-22.621c-65.962 0-119.435 53.473-119.435 119.435 0 65.96 53.473 119.434 119.435 119.434 65.961 0 119.434-53.474 119.434-119.434 0-65.962-53.473-119.435-119.434-119.435M788.683 821.745c-12.493 0-22.62 10.128-22.62 22.62v170.375h22.62V821.745zM867.854 821.745c-6.248 0-11.311 5.063-11.311 11.31v71.819c0 6.247 5.062 11.31 11.311 11.31 6.245 0 11.31-5.062 11.31-11.31v-71.819c-0.001-6.246-5.065-11.31-11.31-11.31M165.72 347.035c-6.247 0-11.31 5.063-11.31 11.311v71.818c0 6.246 5.063 11.311 11.31 11.311 6.247 0 11.311-5.064 11.311-11.311v-71.818c0-6.247-5.064-11.311-11.311-11.311M353.198 166.074H326.62c-6.247 0-11.31 5.062-11.31 11.311 0 6.246 5.063 11.31 11.31 11.31h26.579c6.246 0 11.31-5.063 11.31-11.31-0.001-6.248-5.065-11.311-11.311-11.311M686.828 166.074h-26.579c-6.247 0-11.31 5.062-11.31 11.311 0 6.246 5.062 11.31 11.31 11.31h26.579c6.246 0 11.31-5.063 11.31-11.31 0-6.248-5.064-11.311-11.31-11.311" fill="#12126D" p-id="2928"></path><path d="M860.725 347.035H165.72c-6.247 0-11.31 5.063-11.31 11.311 0 6.246 5.063 11.311 11.31 11.311h695.004c6.247 0 11.311-5.064 11.311-11.311s-5.063-11.311-11.31-11.311" fill="#12126D" p-id="2929"></path><path d="M505.006 347.035c-6.246 0-11.31 5.063-11.31 11.311v71.818c0 6.246 5.064 11.311 11.31 11.311s11.31-5.064 11.31-11.311v-71.818c0-6.247-5.064-11.311-11.31-11.311" fill="#12126D" p-id="2930"></path><path d="M505.006 264.189c-6.246 0-11.31 5.062-11.31 11.31v71.819c0 6.246 5.064 11.311 11.31 11.311s11.31-5.064 11.31-11.311v-71.819c0-6.247-5.064-11.31-11.31-11.31M326.62 166.074c-6.247 0-11.31 5.062-11.31 11.311v173.609c0 6.246 5.063 11.311 11.31 11.311 6.246 0 11.31-5.064 11.31-11.311V177.385c0-6.248-5.065-11.311-11.31-11.311M686.828 166.074c-6.247 0-11.311 5.062-11.311 11.311v173.609c0 6.246 5.063 11.311 11.311 11.311 6.246 0 11.31-5.064 11.31-11.311V177.385c0-6.248-5.064-11.311-11.31-11.311M862.195 347.035c-6.246 0-11.31 5.063-11.31 11.311v71.818c0 6.246 5.063 11.311 11.31 11.311 6.245 0 11.311-5.064 11.311-11.311v-71.818c0-6.247-5.066-11.311-11.311-11.311" fill="#12126D" p-id="2931"></path><path d="M334.205 875.846s110.093 31.799 134.214 12.816" fill="#B4CEFC" p-id="2932"></path><path d="M440.009 904.751c-16.268 0-34.502-2.795-49.539-5.541-30.681-5.604-57.896-13.427-59.04-13.757-5.306-1.532-8.364-7.075-6.832-12.382 1.532-5.306 7.076-8.366 12.381-6.833 0.272 0.078 27.519 7.906 57.227 13.322 17.183 3.133 31.77 4.853 43.354 5.111 17.826 0.4 23.394-2.86 24.675-3.868 4.34-3.416 10.628-2.665 14.042 1.674 3.416 4.341 2.666 10.628-1.674 14.043-7.766 6.112-20.436 8.231-34.594 8.231z" fill="#12126D" p-id="2933"></path><path d="M503.746 124.426c-10.072-0.78-17.947-9.299-17.947-19.438 0-10.799 8.709-19.585 19.414-19.585 10.646 0 19.307 8.786 19.307 19.585 0 6.135 4.966 11.125 11.069 11.125 6.11 0 11.081-4.99 11.081-11.125 0-18.745-12.657-35.312-30.43-40.295v-9.044c0-6.146-4.971-11.146-11.147-11.146-6.05 0.134-10.972 5.152-10.972 11.188v9.066c-17.766 4.971-30.419 21.529-30.419 40.274 0 22.068 17.07 40.196 38.613 41.7l0.013 0.141h2.778c0.101 0 0.221-0.005 0.354-0.019 10.369 0.921 19.06 9.687 19.06 19.317 0 10.794-8.661 19.576-19.307 19.576-10.705 0-19.414-8.782-19.414-19.576 0-6.139-4.965-11.134-11.068-11.134-6.11 0-11.082 4.995-11.082 11.134 0 18.732 12.659 35.291 30.43 40.273v8.961c0 6.145 4.971 11.143 11.081 11.143s11.081-4.998 11.081-11.143v-9.066c17.771-4.972 30.43-21.531 30.43-40.275-0.001-22.532-19.603-41.574-42.925-41.637zM855.695 542.939c-6.043-0.469-10.769-5.58-10.769-11.662 0-6.48 5.226-11.752 11.648-11.752 6.388 0 11.584 5.271 11.584 11.752 0 3.68 2.979 6.674 6.642 6.674 3.666 0 6.648-2.994 6.648-6.674 0-11.248-7.594-21.188-18.258-24.178v-5.427a6.684 6.684 0 0 0-6.688-6.688c-3.63 0.081-6.583 3.092-6.583 6.713v5.439c-10.659 2.982-18.251 12.919-18.251 24.165 0 13.241 10.242 24.118 23.168 25.021l0.008 0.085h1.667c0.061 0 0.132-0.004 0.212-0.012 6.222 0.553 11.436 5.812 11.436 11.59 0 6.477-5.196 11.746-11.584 11.746-6.423 0-11.648-5.27-11.648-11.746 0-3.683-2.979-6.68-6.641-6.68-3.666 0-6.649 2.997-6.649 6.68 0 11.24 7.596 21.176 18.258 24.164v5.377c0 3.688 2.982 6.686 6.648 6.686s6.648-2.998 6.648-6.686v-5.439c10.663-2.983 18.258-12.919 18.258-24.166 0-13.519-11.761-24.944-25.754-24.982zM504.992 542.939c-6.043-0.469-10.769-5.58-10.769-11.662 0-6.48 5.226-11.752 11.648-11.752 6.388 0 11.583 5.271 11.583 11.752 0 3.68 2.98 6.674 6.643 6.674 3.666 0 6.648-2.994 6.648-6.674 0-11.248-7.594-21.188-18.258-24.178v-5.427a6.684 6.684 0 0 0-6.688-6.688c-3.63 0.081-6.583 3.092-6.583 6.713v5.439c-10.659 2.982-18.251 12.919-18.251 24.165 0 13.241 10.242 24.118 23.168 25.021l0.008 0.085h1.667c0.061 0 0.132-0.004 0.212-0.012 6.222 0.553 11.435 5.812 11.435 11.59 0 6.477-5.196 11.746-11.583 11.746-6.423 0-11.648-5.27-11.648-11.746 0-3.683-2.979-6.68-6.641-6.68-3.666 0-6.649 2.997-6.649 6.68 0 11.24 7.596 21.176 18.258 24.164v5.377c0 3.688 2.982 6.686 6.648 6.686s6.648-2.998 6.648-6.686v-5.439c10.663-2.983 18.258-12.919 18.258-24.166 0-13.519-11.762-24.944-25.754-24.982z" fill="#FFFFFF" p-id="2934"></path><path d="M158.987 542.939c-6.043-0.469-10.769-5.58-10.769-11.662 0-6.48 5.226-11.752 11.648-11.752 6.388 0 11.583 5.271 11.583 11.752 0 3.68 2.98 6.674 6.643 6.674 3.666 0 6.648-2.994 6.648-6.674 0-11.248-7.594-21.188-18.258-24.178v-5.427a6.684 6.684 0 0 0-6.688-6.688c-3.63 0.081-6.583 3.092-6.583 6.713v5.439c-10.659 2.982-18.251 12.919-18.251 24.165 0 13.241 10.242 24.118 23.168 25.021l0.008 0.085h1.667c0.061 0 0.132-0.004 0.212-0.012 6.222 0.553 11.435 5.812 11.435 11.59 0 6.477-5.196 11.746-11.583 11.746-6.423 0-11.648-5.27-11.648-11.746 0-3.683-2.979-6.68-6.641-6.68-3.666 0-6.649 2.997-6.649 6.68 0 11.24 7.596 21.176 18.258 24.164v5.377c0 3.688 2.982 6.686 6.648 6.686s6.648-2.998 6.648-6.686v-5.439c10.663-2.983 18.258-12.919 18.258-24.166 0.001-13.519-11.761-24.944-25.754-24.982z" fill="#FFFFFF" p-id="2935"></path></svg>